<svg version="1.1" id="Layer_1" xmlns="http://www.w3.org/2000/svg" xmlns:xlink="http://www.w3.org/1999/xlink" x="0px" y="0px"
	 width="100%" viewBox="0 0 334 247" enable-background="new 0 0 334 247" xml:space="preserve">
<path fill="#14161F" opacity="1.000000" stroke="none" 
	d="
M212.000000,248.000000 
	C141.333359,248.000000 71.166710,248.000000 1.000047,248.000000 
	C1.000031,165.666718 1.000031,83.333427 1.000016,1.000102 
	C112.333252,1.000068 223.666504,1.000068 334.999817,1.000034 
	C334.999878,83.333229 334.999878,165.666458 334.999939,247.999847 
	C294.166656,248.000000 253.333328,248.000000 212.000000,248.000000 
M145.463730,28.059336 
	C145.010269,28.728718 144.556808,29.398102 143.872879,30.604301 
	C143.781021,30.775999 143.689163,30.947699 143.373322,31.307819 
	C143.233063,31.445953 143.103058,31.593153 142.891861,31.864367 
	C142.891861,31.864367 142.755569,31.919172 142.077087,32.004524 
	C140.041855,34.310863 138.006622,36.617199 135.927216,39.332592 
	C135.927216,39.332592 135.890686,39.742393 135.290909,40.000431 
	C134.242355,41.358776 133.193817,42.717125 131.531662,44.184696 
	C131.360916,45.128433 131.190155,46.072170 130.997589,47.665363 
	C130.956680,48.096561 130.915756,48.527760 130.164185,49.185333 
	C125.974655,53.467346 128.470184,58.317169 128.852798,63.736168 
	C127.937881,67.510468 127.022957,71.284767 125.282715,75.210609 
	C125.010788,75.273834 124.738861,75.337067 123.764549,75.223640 
	C120.886436,74.922531 120.146957,76.324944 120.704834,79.407776 
	C120.641106,79.579437 120.577370,79.751099 119.799454,80.035805 
	C119.548042,84.054420 118.526505,88.225830 119.284088,92.044258 
	C119.912392,95.211105 119.500984,100.187927 125.058372,101.170601 
	C129.942566,107.565742 129.545456,114.236725 126.066597,121.054855 
	C126.066597,121.054855 126.044365,121.063744 125.347328,121.159370 
	C123.890823,122.736732 122.434326,124.314102 120.246208,125.936798 
	C119.516533,125.984512 118.786850,126.032227 117.583763,125.664085 
	C114.907768,126.549461 114.464172,127.966469 117.053230,129.294006 
	C121.334572,131.489273 123.872154,133.978058 122.317192,139.079926 
	C122.164337,139.581436 122.675850,140.333710 122.979080,140.917633 
	C124.335297,143.529175 123.806892,145.181152 120.861412,146.247620 
	C113.594185,148.878845 106.455353,151.871216 99.156517,154.406342 
	C93.989624,156.200958 91.870201,158.796387 92.965378,163.672592 
	C92.916008,164.113037 92.866631,164.553482 92.146133,165.180679 
	C89.967163,168.495453 86.599190,171.572510 89.999359,176.887802 
	C90.583023,180.252426 90.195229,184.289276 91.958603,186.837555 
	C95.320419,191.695786 99.909630,195.704681 104.224876,200.705536 
	C105.460236,201.153259 106.695595,201.600983 107.994972,202.764450 
	C113.325699,207.184998 118.656433,211.605560 124.436249,216.516861 
	C130.954544,220.389603 137.472855,224.262329 144.447464,228.708557 
	C146.622528,229.144135 148.797577,229.579727 151.524048,230.365540 
	C152.987885,231.551254 154.451721,232.736954 156.569641,234.238342 
	C157.729996,234.476868 158.890350,234.715393 160.684494,234.976273 
	C161.107208,234.970566 161.529922,234.964859 162.724747,234.980804 
	C163.495651,234.979828 164.266571,234.978851 165.734100,234.955521 
	C166.837082,234.008987 167.940048,233.062439 169.598145,231.966003 
	C170.065460,231.643997 170.532776,231.321991 171.796844,231.001083 
	C173.528000,230.666565 175.259171,230.332047 177.617874,229.696503 
	C181.312332,227.831818 185.149078,226.198120 188.660004,224.035477 
	C191.970474,221.996307 194.937912,219.400238 198.678131,216.751343 
	C201.112579,215.161087 203.547028,213.570847 206.663010,211.861664 
	C209.780594,208.912064 212.898193,205.962479 216.660019,202.900314 
	C217.771713,202.269608 218.883408,201.638916 220.566055,200.660904 
	C224.890945,195.666824 229.358124,190.785049 233.446777,185.604523 
	C234.552856,184.203049 234.513092,181.897263 235.464386,179.353409 
	C237.737488,166.251755 232.833801,158.030914 220.600769,153.861435 
	C213.394775,151.405365 206.293518,148.629150 199.210907,145.830490 
	C196.477158,144.750214 193.740005,143.090759 195.850708,139.508774 
	C199.525543,133.272369 197.965866,127.080521 196.369034,120.734665 
	C195.335022,116.625412 194.685959,112.410805 194.031570,108.217316 
	C193.545654,105.103401 194.900192,102.910210 198.119614,102.522331 
	C202.182327,102.032867 203.475143,99.748550 203.475861,95.323914 
	C203.642654,90.576927 203.926590,85.828903 203.884094,81.083786 
	C203.874863,80.050499 202.697495,79.027664 201.901489,77.422691 
	C201.287094,76.715324 200.672684,76.007965 199.764343,74.601730 
	C197.839783,66.539734 195.724411,58.516529 194.073853,50.398815 
	C193.288055,46.534245 193.621567,42.351521 188.282181,40.948055 
	C188.100998,40.772564 187.963272,40.567822 187.830734,39.604736 
	C186.842422,38.775028 185.854126,37.945320 184.826843,37.162449 
	C184.826843,37.162449 184.768677,37.180614 184.750549,36.469326 
	C181.088867,26.290287 173.013428,22.276197 163.020660,21.202244 
	C161.755554,21.066280 160.336807,22.359810 158.343613,23.056154 
	C157.911179,23.063103 157.478729,23.070051 156.453613,22.603796 
	C150.729019,21.574806 148.325439,22.846134 145.991806,28.032093 
	C145.991806,28.032093 146.082520,28.072033 145.463730,28.059336 
z"/>
<path fill="#31536E" opacity="1.000000" stroke="none" 
	d="
M157.046295,23.077000 
	C157.478729,23.070051 157.911179,23.063103 159.083466,23.061069 
	C163.255600,23.698654 166.687866,24.331322 169.988708,25.256382 
	C169.425079,26.282915 168.992874,27.017059 168.261444,27.856701 
	C167.318039,31.473272 169.855316,29.657375 171.047302,29.681290 
	C174.636429,29.753292 177.830231,30.113970 177.822144,34.853401 
	C177.806564,43.969612 177.828400,53.085884 177.820648,62.202118 
	C177.817841,65.505310 176.111115,67.057076 172.837265,66.932983 
	C171.347504,66.876518 169.858078,66.810867 168.132111,66.501740 
	C161.461365,60.780426 155.027008,55.306759 147.403961,48.821880 
	C147.403961,55.109234 147.403961,60.021763 147.206482,65.276718 
	C143.459915,68.156403 140.577530,67.015785 138.035233,63.530151 
	C137.985031,59.050232 137.936020,55.032749 137.933014,50.586781 
	C137.977966,48.437622 137.976929,46.716953 138.016479,44.579788 
	C138.163818,42.510727 138.270584,40.858158 138.590958,38.930847 
	C140.865677,37.784809 142.926788,36.913513 145.223999,36.246201 
	C146.244507,36.702370 147.028931,36.954556 148.014221,37.469734 
	C154.018036,43.507965 159.820999,49.283207 165.623962,55.058449 
	C166.060089,54.763409 166.496216,54.468372 166.932327,54.173332 
	C166.883408,49.238491 168.270889,44.096066 164.225769,39.335350 
	C164.529114,36.404827 164.866440,33.872784 165.355164,31.157686 
	C165.364990,30.596302 165.223419,30.217970 164.736389,29.952591 
	C159.470947,33.134575 161.317795,37.122658 162.933975,41.450989 
	C163.306686,43.644279 163.641144,45.460800 163.975616,47.277325 
	C163.638885,47.455845 163.302155,47.634365 162.965424,47.812885 
	C158.342651,43.834400 153.719879,39.855915 148.878082,35.682625 
	C147.947479,35.224125 147.235947,34.960423 146.248535,34.496098 
	C144.900299,33.503372 143.827927,32.711273 142.755569,31.919174 
	C142.755569,31.919172 142.891861,31.864367 143.080078,31.745766 
	C143.444092,31.500746 143.553757,31.331490 143.597290,31.119396 
	C143.689163,30.947699 143.781021,30.775999 144.237366,30.194271 
	C145.095398,29.213507 145.588959,28.642771 146.082520,28.072033 
	C146.082520,28.072033 145.991806,28.032093 146.366943,27.967617 
	C150.176819,26.294430 153.611557,24.685717 157.046295,23.077000 
z"/>
<path fill="#213645" opacity="1.000000" stroke="none" 
	d="
M155.915573,233.922653 
	C154.451721,232.736954 152.987885,231.551254 151.085098,229.897583 
	C138.109604,214.020081 129.327194,196.572800 122.857643,177.903458 
	C120.233673,170.331360 120.378761,170.296188 127.281776,165.748352 
	C127.954018,165.305450 128.446991,164.590439 129.311188,163.829559 
	C131.557785,162.072769 133.516388,160.488159 136.115112,158.385635 
	C137.160217,163.326950 137.837250,167.209839 138.812744,171.016266 
	C142.142365,184.008728 145.577011,196.974258 149.040268,210.323441 
	C151.377823,218.438751 153.646698,226.180710 155.915573,233.922653 
z"/>
<path fill="#203645" opacity="1.000000" stroke="none" 
	d="
M171.000107,231.000000 
	C170.532776,231.321991 170.065460,231.643997 169.109802,231.812500 
	C168.052872,231.440811 167.484268,231.222626 166.929474,230.591156 
	C168.963623,223.115921 170.983948,216.053940 173.066238,208.658920 
	C173.427994,207.244781 173.727798,206.163681 174.248169,204.785980 
	C175.434219,201.364166 176.623489,198.287979 177.320602,195.104019 
	C179.001144,187.428284 180.451462,179.702148 182.190292,171.866486 
	C182.630264,171.531586 182.816437,171.283005 182.958282,170.580872 
	C183.661621,167.123413 184.351135,164.075943 185.359131,161.115448 
	C190.461349,165.133118 195.245087,169.063812 200.009949,173.389404 
	C196.540237,188.324463 189.768173,201.450516 182.370560,214.245743 
	C179.001099,220.073715 174.815506,225.429840 171.000107,231.000000 
z"/>
<path fill="#0A1924" opacity="1.000000" stroke="none" 
	d="
M203.003616,96.003548 
	C203.475143,99.748550 202.182327,102.032867 198.119614,102.522331 
	C194.900192,102.910210 193.545654,105.103401 194.031570,108.217316 
	C194.685959,112.410805 195.335022,116.625412 196.369034,120.734665 
	C197.965866,127.080521 199.525543,133.272369 195.850708,139.508774 
	C193.740005,143.090759 196.477158,144.750214 199.210907,145.830490 
	C206.293518,148.629150 213.394775,151.405365 220.600769,153.861435 
	C232.833801,158.030914 237.737488,166.251755 235.007141,179.372421 
	C234.014511,176.657562 233.846756,173.782074 232.860504,171.221878 
	C231.243484,167.024261 232.582809,161.336349 226.695984,159.013489 
	C225.917938,159.000961 225.473618,158.995560 224.824738,158.696167 
	C217.266693,155.723785 209.947235,152.940948 202.510223,150.519135 
	C201.715088,150.260208 200.233963,152.107803 198.799805,152.986603 
	C198.348251,152.998795 198.167953,153.002548 197.706573,152.821411 
	C194.580917,149.066544 191.736328,145.496582 188.891739,141.926636 
	C188.242294,142.209747 187.592850,142.492874 186.943405,142.775986 
	C186.943405,145.339294 187.303635,147.969772 186.841827,150.446991 
	C186.382263,152.912186 187.333908,156.529388 183.101608,156.660278 
	C183.204056,155.904587 183.337021,155.482574 183.703674,154.983292 
	C183.920990,154.261414 183.904602,153.616806 183.826416,152.512177 
	C183.833771,147.704529 183.902908,143.356888 184.158615,138.860245 
	C184.069260,138.119003 183.793335,137.526764 183.327271,136.682190 
	C183.063644,136.019516 182.990143,135.609177 182.909149,134.828217 
	C181.080795,131.230377 179.259933,128.003159 177.552094,124.509247 
	C177.851349,123.904533 178.037552,123.566536 178.533936,123.101166 
	C181.161270,119.604195 184.197769,116.512474 185.631409,112.801529 
	C187.930252,106.851028 189.167679,100.490479 191.058990,94.056351 
	C191.835556,93.538734 192.406845,93.267975 192.964508,93.375061 
	C192.738785,95.501526 192.526718,97.250137 192.314636,98.998756 
	C192.636154,99.038422 192.957672,99.078094 193.279205,99.117760 
	C194.399323,95.758186 195.519455,92.398613 196.693298,89.434296 
	C196.827026,90.889763 196.907028,91.949982 196.936707,93.434250 
	C197.057587,95.811081 197.228775,97.763863 197.399963,99.716644 
	C197.928452,99.833275 198.456924,99.949913 198.985397,100.066544 
	C199.684952,98.713501 200.384506,97.360451 201.403961,96.006584 
	C202.150452,96.005028 202.577042,96.004288 203.003616,96.003548 
M191.917130,116.842697 
	C191.359207,116.070229 190.801300,115.297752 190.243393,114.525284 
	C189.812866,114.680099 189.382355,114.834923 188.951843,114.989738 
	C190.047485,122.566246 191.143127,130.142761 192.393646,138.790298 
	C193.394562,135.919785 195.032242,133.537766 194.829041,131.324814 
	C194.404175,126.697815 193.008392,122.159981 191.917130,116.842697 
z"/>
<path fill="#162838" opacity="1.000000" stroke="none" 
	d="
M199.071060,152.978180 
	C200.233963,152.107803 201.715088,150.260208 202.510223,150.519135 
	C209.947235,152.940948 217.266693,155.723785 224.748260,159.065552 
	C224.013779,162.412628 222.857941,165.041016 222.339569,167.789627 
	C220.128922,179.511353 218.106750,191.268600 216.015793,203.012894 
	C212.898193,205.962479 209.780594,208.912064 206.342407,211.556000 
	C206.543503,210.051300 206.874405,208.715866 207.618103,207.675522 
	C212.125046,201.370926 213.896759,194.214325 214.245956,186.636292 
	C214.298218,185.501862 213.908325,183.703781 213.138977,183.284637 
	C209.550171,181.329361 205.756393,179.750305 202.177063,177.681274 
	C204.140823,172.669327 206.177689,167.966354 199.308273,165.465591 
	C204.715240,160.248825 204.572388,157.361328 199.071060,152.978180 
z"/>
<path fill="#203645" opacity="1.000000" stroke="none" 
	d="
M202.035904,178.036713 
	C205.756393,179.750305 209.550171,181.329361 213.138977,183.284637 
	C213.908325,183.703781 214.298218,185.501862 214.245956,186.636292 
	C213.896759,194.214325 212.125046,201.370926 207.618103,207.675522 
	C206.874405,208.715866 206.543503,210.051300 206.001648,211.615479 
	C203.547028,213.570847 201.112579,215.161087 198.003998,216.945038 
	C196.018860,217.775604 194.765549,218.611572 193.385834,219.011139 
	C189.605957,220.105820 185.772949,221.016937 182.036682,221.659256 
	C190.453201,207.673157 197.291214,193.336746 202.035904,178.036713 
z"/>
<path fill="#0C1B25" opacity="1.000000" stroke="none" 
	d="
M92.997513,163.008652 
	C91.870201,158.796387 93.989624,156.200958 99.156517,154.406342 
	C106.455353,151.871216 113.594185,148.878845 120.861412,146.247620 
	C123.806892,145.181152 124.335297,143.529175 122.979080,140.917633 
	C122.675850,140.333710 122.164337,139.581436 122.317192,139.079926 
	C123.872154,133.978058 121.334572,131.489273 117.053230,129.294006 
	C114.464172,127.966469 114.907768,126.549461 117.927094,126.201691 
	C120.851471,129.199890 123.694939,129.851334 126.726944,127.678413 
	C131.541382,124.228088 133.241516,118.994553 131.670288,113.791252 
	C129.925964,116.068642 128.011749,118.567841 126.097549,121.067047 
	C129.545456,114.236725 129.942566,107.565742 125.276688,100.471779 
	C125.618393,97.234207 125.741783,94.695450 125.923981,91.814926 
	C126.318611,90.655174 126.654442,89.837196 126.995880,89.010521 
	C127.001503,89.001831 126.987152,89.011803 126.985397,89.400375 
	C127.660873,91.532173 128.338104,93.275398 129.350098,95.014130 
	C130.354431,95.009804 131.024002,95.009972 131.796478,95.429031 
	C133.752914,106.171951 136.154419,116.258972 144.168427,124.410385 
	C144.197861,127.245567 144.119171,129.635681 144.000702,132.338043 
	C143.926666,134.418381 143.892395,136.186447 143.502960,137.992020 
	C142.673920,138.073151 142.200043,138.116791 141.600677,137.852997 
	C141.485703,136.886642 141.496201,136.227707 141.642700,135.279236 
	C141.501129,134.530502 141.223602,134.071274 140.946075,133.612045 
	C140.628815,134.067551 140.311554,134.523071 139.901855,135.288361 
	C139.401443,136.817001 138.993484,138.035889 138.204971,139.213593 
	C136.549301,139.779449 135.274170,140.386459 133.716965,141.167725 
	C131.333038,143.577805 129.231155,145.813629 126.816391,148.077789 
	C125.721115,148.393799 124.938728,148.681488 123.751694,148.980804 
	C115.222488,151.991577 107.097916,154.990723 98.691467,158.043411 
	C97.938057,158.403870 97.466515,158.710785 96.706909,159.158020 
	C95.278397,160.535110 94.137955,161.771881 92.997513,163.008652 
M126.347221,133.178543 
	C124.078712,138.150070 124.430222,139.518860 128.486374,141.094223 
	C129.227982,137.639725 129.959549,134.231979 130.978149,129.487183 
	C128.832687,131.116791 127.838036,131.872299 126.347221,133.178543 
z"/>
<path fill="#0A1D2A" opacity="1.000000" stroke="none" 
	d="
M168.368500,66.749382 
	C169.858078,66.810867 171.347504,66.876518 172.837265,66.932983 
	C176.111115,67.057076 177.817841,65.505310 177.820648,62.202118 
	C177.828400,53.085884 177.806564,43.969612 177.822144,34.853401 
	C177.830231,30.113970 174.636429,29.753292 171.047302,29.681290 
	C169.855316,29.657375 167.318039,31.473272 168.625183,27.908829 
	C170.247986,27.447363 171.207855,27.039265 172.167725,26.631168 
	C171.485199,26.075439 170.802658,25.519714 170.120132,24.963989 
	C166.687866,24.331322 163.255600,23.698654 159.406281,23.028519 
	C160.336807,22.359810 161.755554,21.066280 163.020660,21.202244 
	C173.013428,22.276197 181.088867,26.290287 184.455109,36.733154 
	C182.948074,36.334312 181.736481,35.671642 180.581818,35.040108 
	C180.581818,45.117817 180.581818,54.829983 180.581818,64.702827 
	C188.680450,61.845165 191.868011,51.884750 188.555923,41.196960 
	C193.621567,42.351521 193.288055,46.534245 194.073853,50.398815 
	C195.724411,58.516529 197.839783,66.539734 199.762482,75.250504 
	C198.788330,78.248253 197.816025,80.597214 196.634155,82.609314 
	C195.892059,76.993515 195.520508,71.689301 194.698639,66.455803 
	C194.522568,65.334679 192.715210,64.469734 191.659348,63.486771 
	C191.345093,64.771370 190.614441,66.118019 190.794876,67.328911 
	C191.329697,70.918289 192.223785,74.454155 192.676666,77.939316 
	C191.890076,77.506409 191.404205,77.145119 190.883774,76.402542 
	C190.365982,73.816849 190.151108,71.496742 189.274033,69.462120 
	C188.896622,68.586601 187.146347,68.302887 185.649307,67.826218 
	C183.180298,68.583817 181.081741,69.265503 178.563095,69.945953 
	C175.750626,70.225494 173.358261,70.506271 170.509583,70.722076 
	C166.344864,70.704178 162.636475,70.751244 158.742615,70.620377 
	C157.763870,70.475670 156.970627,70.508873 155.812408,70.594574 
	C154.607758,70.296654 153.768051,69.946228 153.268341,69.227226 
	C156.729721,68.568169 159.851135,68.277687 163.362762,67.975281 
	C165.291489,67.558693 166.830002,67.154037 168.368500,66.749382 
z"/>
<path fill="#233848" opacity="1.000000" stroke="none" 
	d="
M123.987160,216.026123 
	C118.656433,211.605560 113.325699,207.184998 107.985443,202.024841 
	C107.988388,200.523148 108.000870,199.761063 108.337372,199.102982 
	C113.916931,206.029587 118.881516,206.822647 124.518471,201.566360 
	C123.235367,200.319092 120.968201,199.165482 120.844414,197.815338 
	C120.270058,191.550659 120.290031,185.231506 120.337654,179.190247 
	C125.724625,190.963562 130.871155,202.478516 135.723251,214.192444 
	C133.718765,218.806503 131.403259,220.383926 127.442558,216.413635 
	C126.803467,215.772980 125.164139,216.130173 123.987160,216.026123 
z"/>
<path fill="#162838" opacity="1.000000" stroke="none" 
	d="
M227.029709,159.020630 
	C232.582809,161.336349 231.243484,167.024261 232.860504,171.221878 
	C233.846756,173.782074 234.014511,176.657562 234.774597,179.698990 
	C234.513092,181.897263 234.552856,184.203049 233.446777,185.604523 
	C229.358124,190.785049 224.890945,195.666824 220.051697,200.521881 
	C219.405685,199.082184 218.944229,197.714355 219.193283,196.491180 
	C221.739227,183.987518 224.400604,171.507355 227.029709,159.020630 
z"/>
<path fill="#253A4C" opacity="1.000000" stroke="none" 
	d="
M92.981445,163.340622 
	C94.137955,161.771881 95.278397,160.535110 96.854874,159.504425 
	C99.547997,171.095474 101.864784,182.469254 104.005737,193.876007 
	C104.379654,195.868195 104.013588,197.999268 103.989281,200.066193 
	C99.909630,195.704681 95.320419,191.695786 91.958603,186.837555 
	C90.195229,184.289276 90.583023,180.252426 90.208710,176.141357 
	C91.217796,171.927917 92.017525,168.460922 92.817253,164.993927 
	C92.866631,164.553482 92.916008,164.113037 92.981445,163.340622 
z"/>
<path fill="#0A1D2A" opacity="1.000000" stroke="none" 
	d="
M202.177063,177.681274 
	C197.291214,193.336746 190.453201,207.673157 181.753906,221.830078 
	C179.927048,224.894089 178.458694,227.445816 176.990326,229.997528 
	C175.259171,230.332047 173.528000,230.666565 171.398468,231.000549 
	C174.815506,225.429840 179.001099,220.073715 182.370560,214.245743 
	C189.768173,201.450516 196.540237,188.324463 200.222244,173.120071 
	C199.750595,170.867874 199.358643,169.008209 198.267441,167.759689 
	C196.858780,166.147934 194.890961,165.024872 192.860657,163.457169 
	C200.204498,159.706055 200.204498,159.706055 197.987656,153.006317 
	C198.167953,153.002548 198.348251,152.998795 198.799805,152.986603 
	C204.572388,157.361328 204.715240,160.248825 199.308273,165.465591 
	C206.177689,167.966354 204.140823,172.669327 202.177063,177.681274 
z"/>
<path fill="#0A1D2A" opacity="1.000000" stroke="none" 
	d="
M136.017685,213.993454 
	C130.871155,202.478516 125.724625,190.963562 120.309425,178.800079 
	C118.113998,169.337021 118.113998,169.337021 122.961418,164.546509 
	C117.668640,161.616302 117.660812,161.612335 120.508232,156.001053 
	C121.703110,153.646362 122.939056,151.312500 124.156334,148.969177 
	C124.938728,148.681488 125.721115,148.393799 126.762894,148.436920 
	C126.316399,150.209549 125.729424,151.725555 124.884338,153.080566 
	C120.916794,159.442093 121.463409,160.666107 129.007385,162.320129 
	C129.013657,163.104889 129.018417,163.553314 129.023193,164.001740 
	C128.446991,164.590439 127.954018,165.305450 127.281776,165.748352 
	C120.378761,170.296188 120.233673,170.331360 122.857643,177.903458 
	C129.327194,196.572800 138.109604,214.020081 150.809387,229.722473 
	C148.797577,229.579727 146.622528,229.144135 144.403137,228.167816 
	C141.578430,223.082520 138.798050,218.537994 136.017685,213.993454 
z"/>
<path fill="#31536E" opacity="1.000000" stroke="none" 
	d="
M188.419052,41.072510 
	C191.868011,51.884750 188.680450,61.845165 180.581818,64.702827 
	C180.581818,54.829983 180.581818,45.117817 180.581818,35.040108 
	C181.736481,35.671642 182.948074,36.334312 184.464172,37.088799 
	C184.768677,37.180614 184.826843,37.162449 184.931656,37.453030 
	C185.980652,38.607018 186.924820,39.470425 187.869003,40.333828 
	C187.963272,40.567822 188.100998,40.772564 188.419052,41.072510 
z"/>
<path fill="#142737" opacity="1.000000" stroke="none" 
	d="
M161.952637,234.959152 
	C161.529922,234.964859 161.107208,234.970566 160.335358,234.582336 
	C159.066833,231.202896 158.074738,228.237350 157.248352,225.226334 
	C156.410492,222.173508 155.736359,219.075714 155.239349,216.231659 
	C155.919724,217.167221 156.281219,217.926117 156.798340,218.557541 
	C157.690750,219.647247 158.679901,220.657715 159.628479,221.701416 
	C160.701508,220.559570 161.955719,219.534637 162.791260,218.239578 
	C163.481781,217.169266 163.919708,215.804932 164.052414,214.527527 
	C164.798645,207.344894 165.418610,200.149139 166.413422,193.102295 
	C167.497360,196.518646 168.249557,199.790573 169.004532,203.483673 
	C169.005478,205.583267 169.003662,207.261734 168.999786,209.367889 
	C168.550293,212.382248 168.350983,215.042984 167.605560,217.540741 
	C165.860458,223.388412 163.853546,229.157974 161.952637,234.959152 
z"/>
<path fill="#132531" opacity="1.000000" stroke="none" 
	d="
M104.107079,200.385864 
	C104.013588,197.999268 104.379654,195.868195 104.005737,193.876007 
	C101.864784,182.469254 99.547997,171.095474 97.142937,159.364105 
	C97.466515,158.710785 97.938057,158.403870 98.849861,158.381073 
	C99.888794,160.566376 100.659370,162.432281 101.057915,164.374527 
	C103.424171,175.906204 105.704285,187.455551 108.013351,198.998962 
	C108.000870,199.761063 107.988388,200.523148 107.953430,201.666992 
	C106.695595,201.600983 105.460236,201.153259 104.107079,200.385864 
z"/>
<path fill="#0A1D2A" opacity="1.000000" stroke="none" 
	d="
M226.695984,159.013489 
	C224.400604,171.507355 221.739227,183.987518 219.193283,196.491180 
	C218.944229,197.714355 219.405685,199.082184 219.766205,200.695557 
	C218.883408,201.638916 217.771713,202.269608 216.337906,202.956604 
	C218.106750,191.268600 220.128922,179.511353 222.339569,167.789627 
	C222.857941,165.041016 224.013779,162.412628 224.952820,159.359558 
	C225.473618,158.995560 225.917938,159.000961 226.695984,159.013489 
z"/>
<path fill="#213444" opacity="1.000000" stroke="none" 
	d="
M135.723251,214.192444 
	C138.798050,218.537994 141.578430,223.082520 144.174973,227.881073 
	C137.472855,224.262329 130.954544,220.389603 124.211700,216.271484 
	C125.164139,216.130173 126.803467,215.772980 127.442558,216.413635 
	C131.403259,220.383926 133.718765,218.806503 135.723251,214.192444 
z"/>
<path fill="#2C4C65" opacity="1.000000" stroke="none" 
	d="
M132.145279,44.075470 
	C133.193817,42.717125 134.242355,41.358776 135.846405,39.980453 
	C136.577805,40.014606 136.753708,40.068737 136.900879,40.470528 
	C136.628357,42.205231 136.384537,43.592278 136.100952,45.407955 
	C136.046463,47.558704 136.031723,49.280823 135.996521,51.455200 
	C135.642670,55.588959 135.309265,59.270458 134.796661,62.808556 
	C134.387161,62.462399 134.174454,62.242638 133.832962,61.674168 
	C132.749359,57.214630 131.812103,53.086796 130.874847,48.958961 
	C130.915756,48.527760 130.956680,48.096561 131.213943,47.093971 
	C131.668625,45.706875 131.906952,44.891174 132.145279,44.075470 
z"/>
<path fill="#0A1D2A" opacity="1.000000" stroke="none" 
	d="
M154.990509,215.997620 
	C155.736359,219.075714 156.410492,222.173508 157.248352,225.226334 
	C158.074738,228.237350 159.066833,231.202896 160.018463,234.571167 
	C158.890350,234.715393 157.729996,234.476868 156.242615,234.080505 
	C153.646698,226.180710 151.377823,218.438751 149.333313,210.391296 
	C150.704514,210.390411 151.851334,210.695038 153.240509,211.241364 
	C153.985397,212.987930 154.487946,214.492767 154.990509,215.997620 
z"/>
<path fill="#404F57" opacity="1.000000" stroke="none" 
	d="
M125.865173,92.156700 
	C125.741783,94.695450 125.618393,97.234207 125.250748,100.131409 
	C119.500984,100.187927 119.912392,95.211105 119.284088,92.044258 
	C118.526505,88.225830 119.548042,84.054420 120.298172,80.410431 
	C121.538635,84.191475 122.280373,87.597900 123.318451,91.091507 
	C124.364914,91.504700 125.115051,91.830696 125.865173,92.156700 
z"/>
<path fill="#1F303C" opacity="1.000000" stroke="none" 
	d="
M126.108032,75.059067 
	C127.022957,71.284767 127.937881,67.510468 129.296356,63.363537 
	C130.488495,62.997337 131.237061,63.003765 132.000183,63.340351 
	C132.031113,64.111015 132.047501,64.551529 132.045258,65.405037 
	C132.047821,66.644676 132.069031,67.471313 132.090057,68.490189 
	C132.089859,68.682434 131.919586,69.027161 131.720917,69.263985 
	C131.376160,70.094345 131.230057,70.687881 131.087631,71.625519 
	C131.012955,72.651497 130.934601,73.333374 130.508423,74.177124 
	C129.761673,79.220024 129.362717,84.101051 128.634613,88.988937 
	C127.866028,89.001137 127.426590,89.006470 126.987152,89.011803 
	C126.987152,89.011803 127.001503,89.001831 127.000137,88.545410 
	C126.701851,83.745682 126.404938,79.402374 126.108032,75.059067 
z"/>
<path fill="#0A1D2A" opacity="1.000000" stroke="none" 
	d="
M162.338684,234.969971 
	C163.853546,229.157974 165.860458,223.388412 167.605560,217.540741 
	C168.350983,215.042984 168.550293,212.382248 169.399933,209.372650 
	C170.869492,208.963806 171.936890,208.977890 173.004272,208.991974 
	C170.983948,216.053940 168.963623,223.115921 166.660736,230.780518 
	C165.931274,232.581406 165.484375,233.779633 165.037476,234.977875 
	C164.266571,234.978851 163.495651,234.979828 162.338684,234.969971 
z"/>
<path fill="#1F303C" opacity="1.000000" stroke="none" 
	d="
M126.082069,121.060944 
	C128.011749,118.567841 129.925964,116.068642 131.670288,113.791252 
	C133.241516,118.994553 131.541382,124.228088 126.726944,127.678413 
	C123.694939,129.851334 120.851471,129.199890 118.163803,126.409615 
	C118.786850,126.032227 119.516533,125.984512 120.925369,125.800110 
	C123.084473,124.130203 124.564423,122.596970 126.044365,121.063744 
	C126.044365,121.063744 126.066597,121.054855 126.082069,121.060944 
z"/>
<path fill="#162838" opacity="1.000000" stroke="none" 
	d="
M177.304108,229.847015 
	C178.458694,227.445816 179.927048,224.894089 181.678192,222.171555 
	C185.772949,221.016937 189.605957,220.105820 193.385834,219.011139 
	C194.765549,218.611572 196.018860,217.775604 197.693054,217.093948 
	C194.937912,219.400238 191.970474,221.996307 188.660004,224.035477 
	C185.149078,226.198120 181.312332,227.831818 177.304108,229.847015 
z"/>
<path fill="#132531" opacity="1.000000" stroke="none" 
	d="
M131.985626,63.010197 
	C131.237061,63.003765 130.488495,62.997337 129.365402,62.995079 
	C128.470184,58.317169 125.974655,53.467346 130.519516,49.072147 
	C131.812103,53.086796 132.749359,57.214630 133.550171,61.723560 
	C132.937683,62.406502 132.461655,62.708347 131.985626,63.010197 
z"/>
<path fill="#0A1D2A" opacity="1.000000" stroke="none" 
	d="
M203.239746,95.663727 
	C202.577042,96.004288 202.150452,96.005028 201.369751,95.615395 
	C200.951187,94.441986 200.886719,93.658943 200.920837,92.456924 
	C201.205780,90.037590 201.392120,88.037254 201.739319,85.676529 
	C201.952820,82.877434 202.005478,80.438728 202.058136,78.000015 
	C202.697495,79.027664 203.874863,80.050499 203.884094,81.083786 
	C203.926590,85.828903 203.642654,90.576927 203.239746,95.663727 
z"/>
<path fill="#B7BEBF" opacity="1.000000" stroke="none" 
	d="
M123.022110,91.004318 
	C122.280373,87.597900 121.538635,84.191475 120.655266,80.353912 
	C120.577370,79.751099 120.641106,79.579437 121.116302,79.214645 
	C122.430405,79.150719 123.333046,79.279907 124.330887,79.816635 
	C123.958099,83.817558 123.490105,87.410934 123.022110,91.004318 
z"/>
<path fill="#1D2B36" opacity="1.000000" stroke="none" 
	d="
M123.318451,91.091507 
	C123.490105,87.410934 123.958099,83.817558 124.473907,79.433533 
	C124.503456,77.562019 124.485191,76.481155 124.466927,75.400291 
	C124.738861,75.337067 125.010788,75.273834 125.695374,75.134842 
	C126.404938,79.402374 126.701851,83.745682 126.994514,88.554100 
	C126.654442,89.837196 126.318611,90.655174 125.923981,91.814926 
	C125.115051,91.830696 124.364914,91.504700 123.318451,91.091507 
z"/>
<path fill="#404F57" opacity="1.000000" stroke="none" 
	d="
M201.979813,77.711349 
	C202.005478,80.438728 201.952820,82.877434 201.394592,85.589722 
	C199.668076,84.922318 198.447098,83.981331 197.127792,83.027901 
	C197.029449,83.015450 196.843704,82.946175 196.843704,82.946175 
	C197.816025,80.597214 198.788330,78.248253 199.909454,75.599945 
	C200.672684,76.007965 201.287094,76.715324 201.979813,77.711349 
z"/>
<path fill="#0A1D2A" opacity="1.000000" stroke="none" 
	d="
M144.987900,36.042221 
	C142.926788,36.913513 140.865677,37.784809 138.252014,38.866966 
	C137.473785,39.048119 137.248138,39.018410 136.759766,38.971603 
	C136.321838,38.944183 136.146622,38.933861 135.971390,38.923538 
	C138.006622,36.617199 140.041855,34.310863 142.416321,31.961849 
	C143.827927,32.711273 144.900299,33.503372 145.957275,34.686539 
	C145.623886,35.399147 145.305893,35.720684 144.987900,36.042221 
z"/>
<path fill="#0A1D2A" opacity="1.000000" stroke="none" 
	d="
M156.749954,22.840399 
	C153.611557,24.685717 150.176819,26.294430 146.404938,28.000153 
	C148.325439,22.846134 150.729019,21.574806 156.749954,22.840399 
z"/>
<path fill="#0C1B25" opacity="1.000000" stroke="none" 
	d="
M92.481689,165.087311 
	C92.017525,168.460922 91.217796,171.927917 90.200508,175.697220 
	C86.599190,171.572510 89.967163,168.495453 92.481689,165.087311 
z"/>
<path fill="#69757C" opacity="1.000000" stroke="none" 
	d="
M124.115738,75.311966 
	C124.485191,76.481155 124.503456,77.562019 124.378700,79.025986 
	C123.333046,79.279907 122.430405,79.150719 121.190407,78.950165 
	C120.146957,76.324944 120.886436,74.922531 124.115738,75.311966 
z"/>
<path fill="#1D2B36" opacity="1.000000" stroke="none" 
	d="
M165.385788,234.966705 
	C165.484375,233.779633 165.931274,232.581406 166.646912,231.193802 
	C167.484268,231.222626 168.052872,231.440811 168.832245,231.887451 
	C167.940048,233.062439 166.837082,234.008987 165.385788,234.966705 
z"/>
<path fill="#0C1B25" opacity="1.000000" stroke="none" 
	d="
M125.695847,121.111557 
	C124.564423,122.596970 123.084473,124.130203 121.291176,125.777451 
	C122.434326,124.314102 123.890823,122.736732 125.695847,121.111557 
z"/>
<path fill="#0A1D2A" opacity="1.000000" stroke="none" 
	d="
M187.849869,39.969284 
	C186.924820,39.470425 185.980652,38.607018 184.951141,37.429611 
	C185.854126,37.945320 186.842422,38.775028 187.849869,39.969284 
z"/>
<path fill="#132531" opacity="1.000000" stroke="none" 
	d="
M131.838470,44.130085 
	C131.906952,44.891174 131.668625,45.706875 131.224854,46.769241 
	C131.190155,46.072170 131.360916,45.128433 131.838470,44.130085 
z"/>
<path fill="#0A1D2A" opacity="1.000000" stroke="none" 
	d="
M145.773132,28.065685 
	C145.588959,28.642771 145.095398,29.213507 144.352600,29.925865 
	C144.556808,29.398102 145.010269,28.728718 145.773132,28.065685 
z"/>
<path fill="#0A1D2A" opacity="1.000000" stroke="none" 
	d="
M143.485306,31.213608 
	C143.553757,31.331490 143.444092,31.500746 143.125809,31.688292 
	C143.103058,31.593153 143.233063,31.445953 143.485306,31.213608 
z"/>
<path fill="#162838" opacity="1.000000" stroke="none" 
	d="
M135.949310,39.128067 
	C136.146622,38.933861 136.321838,38.944183 136.741058,39.255577 
	C136.966599,39.745388 136.948105,39.934132 136.929596,40.122871 
	C136.753708,40.068737 136.577805,40.014606 136.146301,39.851433 
	C135.890686,39.742393 135.927216,39.332592 135.949310,39.128067 
z"/>
<path fill="#132531" opacity="1.000000" stroke="none" 
	d="
M168.132111,66.501740 
	C166.830002,67.154037 165.291489,67.558693 163.326477,67.632950 
	C159.104630,63.558788 155.309311,59.815006 151.513992,56.071224 
	C151.018417,56.289257 150.522827,56.507286 150.027237,56.725319 
	C150.027237,59.480637 150.027237,62.235954 149.806305,64.902573 
	C148.858231,64.854012 148.131088,64.894150 147.403961,64.934296 
	C147.403961,60.021763 147.403961,55.109234 147.403961,48.821880 
	C155.027008,55.306759 161.461365,60.780426 168.132111,66.501740 
z"/>
<path fill="#132531" opacity="1.000000" stroke="none" 
	d="
M164.259766,39.733826 
	C168.270889,44.096066 166.883408,49.238491 166.932327,54.173332 
	C166.496216,54.468372 166.060089,54.763409 165.623962,55.058449 
	C159.820999,49.283207 154.018036,43.507965 148.069687,37.408142 
	C147.924286,37.083553 148.034988,36.964954 148.211975,36.846077 
	C148.611969,36.545467 148.791321,36.327785 148.969986,36.025345 
	C149.012939,35.976536 149.097122,35.877426 149.097122,35.877426 
	C153.719879,39.855915 158.342651,43.834400 162.965424,47.812885 
	C163.302155,47.634365 163.638885,47.455845 163.975616,47.277325 
	C163.641144,45.460800 163.306686,43.644279 163.188583,41.256905 
	C163.689880,40.368645 163.974823,40.051235 164.259766,39.733826 
z"/>
<path fill="#0A1D2A" opacity="1.000000" stroke="none" 
	d="
M147.206482,65.276718 
	C148.131088,64.894150 148.858231,64.854012 149.999634,65.238846 
	C151.241287,67.013947 152.068649,68.364067 152.529449,69.955177 
	C150.421661,70.225906 148.680466,70.255646 146.557495,70.173401 
	C145.121170,69.950882 144.066589,69.840355 142.851868,69.404778 
	C141.571609,68.800766 140.451477,68.521805 139.035553,68.267807 
	C138.169037,68.131660 137.598328,67.970543 136.859528,67.548218 
	C135.513977,66.971153 134.336533,66.655289 133.009216,66.089241 
	C132.594223,65.556717 132.329056,65.274376 132.063904,64.992035 
	C132.047501,64.551529 132.031113,64.111015 132.000183,63.340351 
	C132.461655,62.708347 132.937683,62.406502 133.696503,62.055264 
	C134.174454,62.242638 134.387161,62.462399 135.042542,63.035301 
	C136.323898,63.601158 137.180161,63.796875 138.036423,63.992588 
	C140.577530,67.015785 143.459915,68.156403 147.206482,65.276718 
z"/>
<path fill="#132531" opacity="1.000000" stroke="none" 
	d="
M138.035233,63.530151 
	C137.180161,63.796875 136.323898,63.601158 135.221756,63.178703 
	C135.309265,59.270458 135.642670,55.588959 136.308594,51.455524 
	C137.056396,51.007484 137.471710,51.011375 137.887009,51.015266 
	C137.936020,55.032749 137.985031,59.050232 138.035233,63.530151 
z"/>
<path fill="#0A1D2A" opacity="1.000000" stroke="none" 
	d="
M164.225769,39.335350 
	C163.974823,40.051235 163.689880,40.368645 163.150345,40.880142 
	C161.317795,37.122658 159.470947,33.134575 164.755188,30.329142 
	C165.147568,30.842073 165.175674,31.091406 165.203766,31.340738 
	C164.866440,33.872784 164.529114,36.404827 164.225769,39.335350 
z"/>
<path fill="#162838" opacity="1.000000" stroke="none" 
	d="
M137.933014,50.586784 
	C137.471710,51.011375 137.056396,51.007484 136.329041,51.003265 
	C136.031723,49.280823 136.046463,47.558704 136.405548,45.412601 
	C137.158585,44.991173 137.567230,44.993725 137.975891,44.996281 
	C137.976929,46.716953 137.977966,48.437622 137.933014,50.586784 
z"/>
<path fill="#132531" opacity="1.000000" stroke="none" 
	d="
M169.988708,25.256382 
	C170.802658,25.519714 171.485199,26.075439 172.167725,26.631168 
	C171.207855,27.039265 170.247986,27.447363 168.924377,27.803329 
	C168.992874,27.017059 169.425079,26.282915 169.988708,25.256382 
z"/>
<path fill="#132531" opacity="1.000000" stroke="none" 
	d="
M138.016479,44.579788 
	C137.567230,44.993725 137.158585,44.991173 136.445312,44.983971 
	C136.384537,43.592278 136.628357,42.205231 136.900879,40.470528 
	C136.948105,39.934132 136.966599,39.745388 137.003784,39.272675 
	C137.248138,39.018410 137.473785,39.048119 138.038391,39.141708 
	C138.270584,40.858158 138.163818,42.510727 138.016479,44.579788 
z"/>
<path fill="#132531" opacity="1.000000" stroke="none" 
	d="
M145.223999,36.246204 
	C145.305893,35.720684 145.623886,35.399147 146.233139,34.887169 
	C147.235947,34.960423 147.947479,35.224125 148.878082,35.682625 
	C149.097122,35.877426 149.012939,35.976536 148.793594,36.142845 
	C148.351776,36.492619 148.172028,36.711220 148.034988,36.964954 
	C148.034988,36.964954 147.924286,37.083553 147.868820,37.145149 
	C147.028931,36.954556 146.244507,36.702370 145.223999,36.246204 
z"/>
<path fill="#132531" opacity="1.000000" stroke="none" 
	d="
M165.355164,31.157686 
	C165.175674,31.091406 165.147568,30.842073 165.100662,30.216190 
	C165.223419,30.217970 165.364990,30.596302 165.355164,31.157686 
z"/>
<path fill="#1D2B36" opacity="1.000000" stroke="none" 
	d="
M152.998169,210.999649 
	C151.851334,210.695038 150.704514,210.390411 149.264633,210.017929 
	C145.577011,196.974258 142.142365,184.008728 138.812744,171.016266 
	C137.837250,167.209839 137.160217,163.326950 136.115112,158.385635 
	C133.516388,160.488159 131.557785,162.072769 129.311188,163.829559 
	C129.018417,163.553314 129.013657,163.104889 129.173645,162.033859 
	C133.466232,157.726639 136.523361,153.810150 135.240524,147.555099 
	C134.888214,145.837311 137.220490,143.568909 138.377777,141.951599 
	C139.827255,150.551193 141.219849,158.752335 142.294342,167.180145 
	C142.133026,169.386551 142.289764,171.366302 142.523727,173.706970 
	C144.472961,182.256699 146.278809,190.461792 148.282211,198.618378 
	C148.615936,199.977112 149.809418,201.124695 150.749969,202.722839 
	C151.267593,203.730362 151.640900,204.384872 152.018143,205.425842 
	C152.347443,207.541397 152.672806,209.270523 152.998169,210.999649 
z"/>
<path fill="#142737" opacity="1.000000" stroke="none" 
	d="
M197.706573,152.821411 
	C200.204498,159.706055 200.204498,159.706055 192.860657,163.457169 
	C194.890961,165.024872 196.858780,166.147934 198.267441,167.759689 
	C199.358643,169.008209 199.750595,170.867874 200.241104,172.725189 
	C195.245087,169.063812 190.461349,165.133118 185.240738,160.780182 
	C184.060165,159.843796 183.316498,159.329636 182.537781,158.483582 
	C182.712524,157.765778 182.922318,157.379883 183.132111,156.993973 
	C187.333908,156.529388 186.382263,152.912186 186.841827,150.446991 
	C187.303635,147.969772 186.943405,145.339294 186.943405,142.775986 
	C187.592850,142.492874 188.242294,142.209747 188.891739,141.926636 
	C191.736328,145.496582 194.580917,149.066544 197.706573,152.821411 
z"/>
<path fill="#0A1D2A" opacity="1.000000" stroke="none" 
	d="
M181.994629,171.996338 
	C180.451462,179.702148 179.001144,187.428284 177.320602,195.104019 
	C176.623489,198.287979 175.434219,201.364166 174.019440,204.515503 
	C173.300339,203.893250 173.030563,203.244858 172.756989,202.217499 
	C175.304169,192.238647 177.855118,182.638748 180.619492,172.946411 
	C181.146011,172.514816 181.459091,172.175705 181.827789,171.876526 
	C181.883408,171.916458 181.994629,171.996338 181.994629,171.996338 
z"/>
<path fill="#1D2B36" opacity="1.000000" stroke="none" 
	d="
M172.760773,202.596451 
	C173.030563,203.244858 173.300339,203.893250 173.798859,204.812119 
	C173.727798,206.163681 173.427994,207.244781 173.066238,208.658920 
	C171.936890,208.977890 170.869492,208.963806 169.401978,208.944962 
	C169.003662,207.261734 169.005478,205.583267 169.378326,203.455933 
	C170.248032,202.975906 170.746719,202.944748 171.474640,202.777039 
	C172.056183,202.625824 172.408478,202.611145 172.760773,202.596451 
z"/>
<path fill="#0A1924" opacity="1.000000" stroke="none" 
	d="
M182.572815,158.815491 
	C183.316498,159.329636 184.060165,159.843796 184.922241,160.693207 
	C184.351135,164.075943 183.661621,167.123413 182.690338,170.586624 
	C182.229584,171.006271 182.050598,171.010178 181.872589,170.615128 
	C181.327576,169.121506 180.781601,168.026871 180.298386,166.589783 
	C181.098373,163.770050 181.835587,161.292770 182.572815,158.815491 
z"/>
<path fill="#0A1D2A" opacity="1.000000" stroke="none" 
	d="
M181.871613,171.014099 
	C182.050598,171.010178 182.229584,171.006271 182.676514,170.996613 
	C182.816437,171.283005 182.630264,171.531586 182.190292,171.866486 
	C181.994629,171.996338 181.883408,171.916458 181.848923,171.671219 
	C181.814438,171.425980 181.871613,171.014099 181.871613,171.014099 
z"/>
<path fill="#081822" opacity="1.000000" stroke="none" 
	d="
M190.918320,76.783829 
	C191.404205,77.145119 191.890076,77.506409 192.683563,78.404182 
	C192.986816,83.626183 192.982483,88.311707 192.978149,92.997223 
	C192.406845,93.267975 191.835556,93.538734 190.744919,94.042679 
	C188.487396,95.358849 186.749222,96.441841 184.632080,97.634598 
	C177.048492,100.980103 169.876907,103.237312 162.698807,96.855751 
	C160.822205,96.775986 159.237625,96.867821 157.494385,96.620041 
	C157.229050,90.933907 157.122406,85.587372 157.474243,80.177727 
	C161.936264,79.959465 165.939804,79.804314 170.262436,79.618057 
	C171.380478,79.361755 172.179398,79.136551 173.354813,78.917175 
	C174.463013,78.758087 175.194748,78.593178 176.237793,78.514503 
	C177.350327,78.349709 178.151535,78.098686 179.329651,77.875061 
	C180.440750,77.745544 181.174942,77.588631 182.259964,77.522041 
	C183.992203,77.204674 185.373581,76.796974 187.152679,76.538101 
	C188.673035,76.719223 189.795670,76.751526 190.918320,76.783829 
z"/>
<path fill="#8A9499" opacity="1.000000" stroke="none" 
	d="
M162.990845,97.027351 
	C169.876907,103.237312 177.048492,100.980103 184.639984,98.082848 
	C184.347473,101.306038 183.766647,104.218369 182.967453,107.069496 
	C181.452362,112.474380 179.812057,117.844170 178.223785,123.228531 
	C178.037552,123.566536 177.851349,123.904533 177.251740,124.611076 
	C175.231018,126.398727 173.727081,127.961517 171.995300,129.207672 
	C168.126694,131.991409 164.274078,135.049500 159.211533,132.880066 
	C162.440552,131.712738 166.175064,131.699463 165.972794,126.645737 
	C165.977814,125.398987 165.966568,124.565941 166.022583,123.421951 
	C166.762207,121.808365 167.434570,120.505707 168.354218,118.948013 
	C165.683792,117.698540 162.766098,116.704109 159.850632,115.355927 
	C158.681870,113.014297 157.510864,111.026428 156.034668,108.520470 
	C157.412933,107.999947 158.718201,107.506981 160.418579,106.982948 
	C165.234146,104.454216 162.027908,100.283485 162.990845,97.027351 
z"/>
<path fill="#C5CACC" opacity="1.000000" stroke="none" 
	d="
M182.537781,158.483582 
	C181.835587,161.292770 181.098373,163.770050 180.053741,166.735931 
	C178.955643,168.061432 178.164948,168.898300 177.404968,169.702652 
	C176.535934,169.072189 175.777008,168.521606 174.869904,167.660645 
	C172.397354,164.659042 169.977615,162.040802 167.819839,159.222031 
	C167.320099,158.569183 167.714890,157.231583 168.002350,156.132462 
	C170.236725,153.656616 172.166824,151.257385 174.159454,148.745621 
	C174.221954,148.633087 174.161850,148.382751 174.303589,148.030304 
	C174.323547,147.455826 174.201782,147.233780 174.047333,147.017273 
	C174.014618,147.022827 174.050873,147.078400 174.376984,147.229126 
	C175.888367,146.041428 177.073639,144.703018 178.576233,143.206512 
	C180.234589,140.431885 181.575607,137.815353 182.916626,135.198837 
	C182.990143,135.609177 183.063644,136.019516 183.201691,136.947357 
	C183.501511,137.979675 183.736771,138.494461 183.972046,139.009262 
	C183.902908,143.356888 183.833771,147.704529 183.624329,152.717682 
	C183.479340,153.942337 183.474655,154.501450 183.469971,155.060562 
	C183.337021,155.482574 183.204056,155.904587 183.101608,156.660278 
	C182.922318,157.379883 182.712524,157.765778 182.537781,158.483582 
z"/>
<path fill="#1F303C" opacity="1.000000" stroke="none" 
	d="
M182.909134,134.828217 
	C181.575607,137.815353 180.234589,140.431885 178.337799,142.916870 
	C177.782013,138.472534 177.782013,134.159729 177.782013,129.402145 
	C173.303696,132.054489 169.617020,134.237991 165.496887,136.463226 
	C159.730850,137.585587 154.962875,136.154892 150.893784,132.781830 
	C149.802689,131.877365 149.606522,129.893280 149.300720,128.614182 
	C151.726883,129.906082 153.851852,130.988586 156.192413,132.319672 
	C157.259460,132.762436 158.110886,132.956604 158.962311,133.150787 
	C164.274078,135.049500 168.126694,131.991409 171.995300,129.207672 
	C173.727081,127.961517 175.231018,126.398727 177.138702,124.877777 
	C179.259933,128.003159 181.080795,131.230377 182.909134,134.828217 
z"/>
<path fill="#5B6871" opacity="1.000000" stroke="none" 
	d="
M178.533936,123.101166 
	C179.812057,117.844170 181.452362,112.474380 182.967453,107.069496 
	C183.766647,104.218369 184.347473,101.306038 185.018982,97.973083 
	C186.749222,96.441841 188.487396,95.358849 190.539642,94.289543 
	C189.167679,100.490479 187.930252,106.851028 185.631409,112.801529 
	C184.197769,116.512474 181.161270,119.604195 178.533936,123.101166 
z"/>
<path fill="#142737" opacity="1.000000" stroke="none" 
	d="
M192.964508,93.375061 
	C192.982483,88.311707 192.986816,83.626183 192.984268,78.475800 
	C192.223785,74.454155 191.329697,70.918289 190.794876,67.328911 
	C190.614441,66.118019 191.345093,64.771370 191.659348,63.486771 
	C192.715210,64.469734 194.522568,65.334679 194.698639,66.455803 
	C195.520508,71.689301 195.892059,76.993515 196.634155,82.609314 
	C196.843704,82.946175 197.029449,83.015450 197.063751,83.453598 
	C196.945221,85.607506 196.792389,87.323273 196.639557,89.039040 
	C195.519455,92.398613 194.399323,95.758186 193.279205,99.117760 
	C192.957672,99.078094 192.636154,99.038422 192.314636,98.998756 
	C192.526718,97.250137 192.738785,95.501526 192.964508,93.375061 
z"/>
<path fill="#162838" opacity="1.000000" stroke="none" 
	d="
M191.964264,117.214111 
	C193.008392,122.159981 194.404175,126.697815 194.829041,131.324814 
	C195.032242,133.537766 193.394562,135.919785 192.393646,138.790298 
	C191.143127,130.142761 190.047485,122.566246 188.951843,114.989738 
	C189.382355,114.834923 189.812866,114.680099 190.243393,114.525284 
	C190.801300,115.297752 191.359207,116.070229 191.964264,117.214111 
z"/>
<path fill="#69757C" opacity="1.000000" stroke="none" 
	d="
M196.693298,89.434296 
	C196.792389,87.323273 196.945221,85.607506 197.162094,83.466049 
	C198.447098,83.981331 199.668076,84.922318 201.233749,85.950104 
	C201.392120,88.037254 201.205780,90.037590 200.539154,92.476814 
	C199.034912,92.947197 198.010971,92.978691 196.987015,93.010193 
	C196.907028,91.949982 196.827026,90.889763 196.693298,89.434296 
z"/>
<path fill="#404F57" opacity="1.000000" stroke="none" 
	d="
M196.936707,93.434242 
	C198.010971,92.978691 199.034912,92.947197 200.440552,92.895798 
	C200.886719,93.658943 200.951187,94.441986 201.049835,95.616211 
	C200.384506,97.360451 199.684952,98.713501 198.985397,100.066544 
	C198.456924,99.949913 197.928452,99.833275 197.399963,99.716644 
	C197.228775,97.763863 197.057587,95.811081 196.936707,93.434242 
z"/>
<path fill="#1F303C" opacity="1.000000" stroke="none" 
	d="
M183.703674,154.983292 
	C183.474655,154.501450 183.479340,153.942337 183.686111,153.177704 
	C183.904602,153.616806 183.920990,154.261414 183.703674,154.983292 
z"/>
<path fill="#1F303C" opacity="1.000000" stroke="none" 
	d="
M184.158615,138.860245 
	C183.736771,138.494461 183.501511,137.979675 183.391815,137.199707 
	C183.793335,137.526764 184.069260,138.119003 184.158615,138.860245 
z"/>
<path fill="#253A4C" opacity="1.000000" stroke="none" 
	d="
M108.337372,199.102982 
	C105.704285,187.455551 103.424171,175.906204 101.057915,164.374527 
	C100.659370,162.432281 99.888794,160.566376 99.131729,158.327545 
	C107.097916,154.990723 115.222488,151.991577 123.751694,148.980804 
	C122.939056,151.312500 121.703110,153.646362 120.508232,156.001053 
	C117.660812,161.612335 117.668640,161.616302 122.961418,164.546509 
	C118.113998,169.337021 118.113998,169.337021 120.068985,178.541702 
	C120.290031,185.231506 120.270058,191.550659 120.844414,197.815338 
	C120.968201,199.165482 123.235367,200.319092 124.518471,201.566360 
	C118.881516,206.822647 113.916931,206.029587 108.337372,199.102982 
z"/>
<path fill="#C9CED0" opacity="1.000000" stroke="none" 
	d="
M142.612427,166.953491 
	C141.219849,158.752335 139.827255,150.551193 138.444687,141.908630 
	C138.454697,141.467209 138.320190,141.206726 138.451324,141.057587 
	C138.583481,140.357224 138.584488,139.806000 138.585510,139.254761 
	C138.993484,138.035889 139.401443,136.817001 140.173767,135.328339 
	C140.860992,135.228622 141.183838,135.398697 141.506714,135.568771 
	C141.496201,136.227707 141.485703,136.886642 141.546539,138.227509 
	C143.052536,141.616989 144.487183,144.324554 146.037567,147.350220 
	C149.408478,150.631119 152.663651,153.593918 155.922485,156.603729 
	C155.926163,156.650742 155.934128,156.665039 156.067551,156.977875 
	C153.936356,159.848541 151.671753,162.406372 149.124832,165.097931 
	C147.683533,166.749878 146.524521,168.268066 145.152405,170.065430 
	C144.165421,168.856201 143.388931,167.904846 142.612427,166.953491 
z"/>
<path fill="#132531" opacity="1.000000" stroke="none" 
	d="
M157.015747,80.240845 
	C157.122406,85.587372 157.229050,90.933907 157.483643,96.817589 
	C157.631577,97.354744 157.684067,97.747063 157.382538,97.913574 
	C154.719055,99.068298 152.357101,100.056519 150.063004,100.690659 
	C150.232849,94.929710 150.587189,89.506233 150.233002,84.129425 
	C150.158356,82.996193 147.485428,82.034119 145.681641,80.978928 
	C144.915771,80.962616 144.477997,80.960564 143.695740,80.939964 
	C142.891953,80.939293 142.432663,80.957161 141.767761,80.966377 
	C141.562134,80.957726 141.150620,80.965767 140.863708,80.709183 
	C137.766525,80.324158 134.956253,80.195724 132.145981,80.067291 
	C132.116119,83.080490 132.052139,86.094215 132.097778,89.106270 
	C132.103775,89.501419 132.671219,89.888062 133.080154,90.575882 
	C134.749969,91.926964 136.318237,92.980820 138.011597,94.340233 
	C139.428696,95.424522 140.720734,96.203255 142.006317,97.346909 
	C141.985764,98.198097 141.971664,98.684372 141.608673,99.138489 
	C139.565872,98.340492 137.871948,97.574661 136.033051,96.533653 
	C134.489899,95.842369 133.091736,95.426262 131.693558,95.010147 
	C131.024002,95.009972 130.354431,95.009804 129.344650,94.582703 
	C128.990860,92.431206 128.977310,90.706635 128.963745,88.982071 
	C129.362717,84.101051 129.761673,79.220024 130.562531,74.581711 
	C133.008865,75.476715 135.053299,76.129021 137.475677,76.923538 
	C140.878479,77.492218 143.903336,77.918686 147.256409,78.528931 
	C150.728348,79.222084 153.872040,79.731468 157.015747,80.240845 
z"/>
<path fill="#233848" opacity="1.000000" stroke="none" 
	d="
M138.320190,141.206726 
	C138.320190,141.206726 138.454697,141.467209 138.387787,141.510193 
	C137.220490,143.568909 134.888214,145.837311 135.240524,147.555099 
	C136.523361,153.810150 133.466232,157.726639 129.172119,161.697510 
	C121.463409,160.666107 120.916794,159.442093 124.884338,153.080566 
	C125.729424,151.725555 126.316399,150.209549 127.075775,148.408585 
	C129.231155,145.813629 131.333038,143.577805 134.434113,141.229218 
	C136.395615,141.146545 137.357895,141.176636 138.320190,141.206726 
z"/>
<path fill="#A0A9AD" opacity="1.000000" stroke="none" 
	d="
M143.858139,137.954529 
	C143.892395,136.186447 143.926666,134.418381 144.363739,132.309982 
	C147.893188,134.214600 151.019806,136.459549 154.105698,139.187668 
	C153.573624,143.422028 153.082291,147.173203 152.286896,150.757492 
	C150.345322,149.017807 148.707840,147.445023 146.907379,145.560333 
	C145.782318,142.817123 144.820236,140.385834 143.858139,137.954529 
z"/>
<path fill="#919BA0" opacity="1.000000" stroke="none" 
	d="
M131.796478,95.429031 
	C133.091736,95.426262 134.489899,95.842369 135.750214,96.765877 
	C136.008896,99.266907 136.126556,101.368965 136.851868,103.234795 
	C139.531174,110.127075 142.411362,116.941269 144.926773,123.827957 
	C144.445114,123.902504 144.252701,123.933914 144.060287,123.965332 
	C136.154419,116.258972 133.752914,106.171951 131.796478,95.429031 
z"/>
<path fill="#69757C" opacity="1.000000" stroke="none" 
	d="
M144.168427,124.410385 
	C144.252701,123.933914 144.445114,123.902504 145.109665,124.074203 
	C146.721039,125.653137 147.860291,127.028969 148.999512,128.404800 
	C149.606522,129.893280 149.802689,131.877365 150.893784,132.781830 
	C154.962875,136.154892 159.730850,137.585587 165.603882,136.831757 
	C166.454178,137.846390 166.764069,138.534256 166.771149,139.409760 
	C165.297012,139.802673 164.125687,140.007950 162.545044,140.164032 
	C160.760254,140.066025 159.384766,140.017197 157.704163,139.814499 
	C156.314850,139.341919 155.230637,139.023209 154.146439,138.704483 
	C151.019806,136.459549 147.893188,134.214600 144.403503,131.997742 
	C144.119171,129.635681 144.197861,127.245567 144.168427,124.410385 
z"/>
<path fill="#1F303C" opacity="1.000000" stroke="none" 
	d="
M126.595299,132.903183 
	C127.838036,131.872299 128.832687,131.116791 130.978149,129.487183 
	C129.959549,134.231979 129.227982,137.639725 128.486374,141.094223 
	C124.430222,139.518860 124.078712,138.150070 126.595299,132.903183 
z"/>
<path fill="#334654" opacity="1.000000" stroke="none" 
	d="
M143.502960,137.992020 
	C144.820236,140.385834 145.782318,142.817123 146.749054,145.784714 
	C146.476395,146.558044 146.199112,146.795074 145.921829,147.032120 
	C144.487183,144.324554 143.052536,141.616989 141.672028,138.534927 
	C142.200043,138.116791 142.673920,138.073151 143.502960,137.992020 
z"/>
<path fill="#1D2B36" opacity="1.000000" stroke="none" 
	d="
M128.634613,88.988937 
	C128.977310,90.706635 128.990860,92.431206 129.009888,94.587189 
	C128.338104,93.275398 127.660873,91.532173 126.985397,89.400375 
	C127.426590,89.006470 127.866028,89.001137 128.634613,88.988937 
z"/>
<path fill="#1D2B36" opacity="1.000000" stroke="none" 
	d="
M138.451324,141.057587 
	C137.357895,141.176636 136.395615,141.146545 134.716171,141.054962 
	C135.274170,140.386459 136.549301,139.779449 138.204971,139.213593 
	C138.584488,139.806000 138.583481,140.357224 138.451324,141.057587 
z"/>
<path fill="#334654" opacity="1.000000" stroke="none" 
	d="
M141.642685,135.279236 
	C141.183838,135.398697 140.860992,135.228622 140.266205,135.018555 
	C140.311554,134.523071 140.628815,134.067551 140.946075,133.612045 
	C141.223602,134.071274 141.501129,134.530502 141.642685,135.279236 
z"/>
<path fill="#B7BEBF" opacity="1.000000" stroke="none" 
	d="
M157.474243,80.177727 
	C153.872040,79.731468 150.728348,79.222084 147.272308,78.074783 
	C146.953064,75.053032 146.946152,72.669212 146.939255,70.285393 
	C148.680466,70.255646 150.421661,70.225906 152.557556,69.902718 
	C152.952255,69.609268 152.928345,69.595802 152.928345,69.595802 
	C153.768051,69.946228 154.607758,70.296654 155.867523,70.928703 
	C157.167755,71.072990 158.047913,70.935646 158.928085,70.798309 
	C162.636475,70.751244 166.344864,70.704178 170.515869,71.128540 
	C171.298553,73.698509 171.618622,75.797058 171.698364,78.026245 
	C170.953125,78.654320 170.448227,79.151741 169.943329,79.649162 
	C165.939804,79.804314 161.936264,79.959465 157.474243,80.177727 
z"/>
<path fill="#2C4C65" opacity="1.000000" stroke="none" 
	d="
M153.268341,69.227226 
	C152.928345,69.595802 152.952255,69.609268 152.924133,69.661728 
	C152.068649,68.364067 151.241287,67.013947 150.220581,65.327545 
	C150.027237,62.235954 150.027237,59.480637 150.027237,56.725319 
	C150.522827,56.507286 151.018417,56.289257 151.513992,56.071224 
	C155.309311,59.815006 159.104630,63.558788 162.936249,67.644890 
	C159.851135,68.277687 156.729721,68.568169 153.268341,69.227226 
z"/>
<path fill="#A0A9AD" opacity="1.000000" stroke="none" 
	d="
M171.938690,77.895599 
	C171.618622,75.797058 171.298553,73.698509 170.972183,71.193504 
	C173.358261,70.506271 175.750626,70.225494 178.826630,70.186668 
	C180.309875,72.762985 181.109497,75.097351 181.909119,77.431717 
	C181.174942,77.588631 180.440750,77.745544 179.128448,77.693336 
	C177.675720,77.798897 176.801086,78.113586 175.926468,78.428276 
	C175.194748,78.593178 174.463013,78.758087 173.213257,78.718765 
	C172.463669,78.283020 172.211502,78.076706 171.938690,77.895599 
z"/>
<path fill="#8A9499" opacity="1.000000" stroke="none" 
	d="
M182.259964,77.522041 
	C181.109497,75.097351 180.309875,72.762985 179.246735,70.187904 
	C181.081741,69.265503 183.180298,68.583817 185.660339,68.238235 
	C186.279556,71.179314 186.517258,73.784302 186.754974,76.389282 
	C185.373581,76.796974 183.992203,77.204674 182.259964,77.522041 
z"/>
<path fill="#5B6871" opacity="1.000000" stroke="none" 
	d="
M187.152679,76.538101 
	C186.517258,73.784302 186.279556,71.179314 186.030823,68.162323 
	C187.146347,68.302887 188.896622,68.586601 189.274033,69.462120 
	C190.151108,71.496742 190.365982,73.816849 190.883774,76.402542 
	C189.795670,76.751526 188.673035,76.719223 187.152679,76.538101 
z"/>
<path fill="#132531" opacity="1.000000" stroke="none" 
	d="
M158.742615,70.620384 
	C158.047913,70.935646 157.167755,71.072990 156.232483,70.876205 
	C156.970627,70.508873 157.763870,70.475670 158.742615,70.620384 
z"/>
<path fill="#213444" opacity="1.000000" stroke="none" 
	d="
M153.240509,211.241364 
	C152.672806,209.270523 152.347443,207.541397 152.036880,205.010406 
	C152.399033,201.130524 152.746414,198.052490 153.308075,194.675781 
	C154.793823,188.844376 156.065292,183.311676 157.215683,178.305801 
	C159.044662,178.867371 160.334717,179.094513 161.459625,179.653809 
	C162.720139,180.280533 163.831161,181.207916 165.006927,182.395050 
	C165.364975,186.176392 165.723328,189.567123 166.081665,192.957870 
	C165.418610,200.149139 164.798645,207.344894 164.052414,214.527527 
	C163.919708,215.804932 163.481781,217.169266 162.791260,218.239578 
	C161.955719,219.534637 160.701508,220.559570 159.628479,221.701416 
	C158.679901,220.657715 157.690750,219.647247 156.798340,218.557541 
	C156.281219,217.926117 155.919724,217.167221 155.239349,216.231659 
	C154.487946,214.492767 153.985397,212.987930 153.240509,211.241364 
z"/>
<path fill="#0A1D2A" opacity="1.000000" stroke="none" 
	d="
M166.413422,193.102295 
	C165.723328,189.567123 165.364975,186.176392 165.241150,182.297760 
	C166.284286,181.873245 167.092896,181.936615 168.051147,182.391388 
	C169.215668,189.493073 170.230530,196.203323 171.245392,202.913589 
	C170.746719,202.944748 170.248032,202.975906 169.375549,203.034790 
	C168.249557,199.790573 167.497360,196.518646 166.413422,193.102295 
z"/>
<path fill="#9AA2A7" opacity="1.000000" stroke="none" 
	d="
M137.097717,76.781326 
	C135.053299,76.129021 133.008865,75.476715 130.910339,74.419830 
	C130.934601,73.333374 131.012955,72.651497 131.359680,71.439545 
	C131.725220,70.282028 131.822403,69.654594 131.919586,69.027161 
	C131.919586,69.027161 132.089859,68.682434 132.350220,68.335854 
	C132.793396,67.439323 132.976227,66.889374 133.159073,66.339424 
	C134.336533,66.655289 135.513977,66.971153 136.793930,68.000519 
	C136.963516,71.403130 137.030609,74.092224 137.097717,76.781326 
z"/>
<path fill="#132531" opacity="1.000000" stroke="none" 
	d="
M133.009216,66.089241 
	C132.976227,66.889374 132.793396,67.439323 132.350403,68.143616 
	C132.069031,67.471313 132.047821,66.644676 132.045258,65.405037 
	C132.329056,65.274376 132.594223,65.556717 133.009216,66.089241 
z"/>
<path fill="#132531" opacity="1.000000" stroke="none" 
	d="
M131.720917,69.263985 
	C131.822403,69.654594 131.725220,70.282028 131.355988,71.095444 
	C131.230057,70.687881 131.376160,70.094345 131.720917,69.263985 
z"/>
<path fill="#0A1D2A" opacity="1.000000" stroke="none" 
	d="
M148.211975,36.846077 
	C148.172028,36.711220 148.351776,36.492619 148.750641,36.191654 
	C148.791321,36.327785 148.611969,36.545467 148.211975,36.846077 
z"/>
<path fill="#DDE2E2" opacity="1.000000" stroke="none" 
	d="
M137.475677,76.923538 
	C137.030609,74.092224 136.963516,71.403130 136.962006,68.261726 
	C137.598328,67.970543 138.169037,68.131660 139.249359,68.570496 
	C140.843292,69.142090 141.927658,69.435966 143.012009,69.729836 
	C144.066589,69.840355 145.121170,69.950882 146.557495,70.173401 
	C146.946152,72.669212 146.953064,75.053032 146.944061,77.891006 
	C143.903336,77.918686 140.878479,77.492218 137.475677,76.923538 
z"/>
<path fill="#132531" opacity="1.000000" stroke="none" 
	d="
M142.851868,69.404778 
	C141.927658,69.435966 140.843292,69.142090 139.545151,68.545532 
	C140.451477,68.521805 141.571609,68.800766 142.851868,69.404778 
z"/>
<path fill="#BFC5C7" opacity="1.000000" stroke="none" 
	d="
M150.605621,202.369843 
	C149.809418,201.124695 148.615936,199.977112 148.282211,198.618378 
	C146.278809,190.461792 144.472961,182.256699 142.836288,173.765442 
	C144.653046,172.816269 146.383469,172.393723 147.778442,171.466492 
	C149.557877,170.283722 151.066269,168.693146 152.795380,167.614014 
	C153.684006,170.717865 155.387421,173.597351 155.068176,176.231705 
	C154.333130,182.296829 152.614731,188.242783 151.184143,194.651978 
	C150.917145,197.501205 150.761383,199.935516 150.605621,202.369843 
z"/>
<path fill="#5B6871" opacity="1.000000" stroke="none" 
	d="
M152.691483,167.278336 
	C151.066269,168.693146 149.557877,170.283722 147.778442,171.466492 
	C146.383469,172.393723 144.653046,172.816269 142.759079,173.404541 
	C142.289764,171.366302 142.133026,169.386551 142.294342,167.180145 
	C143.388931,167.904846 144.165421,168.856201 145.152405,170.065430 
	C146.524521,168.268066 147.683533,166.749878 149.486969,165.166504 
	C150.984787,165.827011 151.838135,166.552673 152.691483,167.278336 
z"/>
<path fill="#0A1D2A" opacity="1.000000" stroke="none" 
	d="
M150.749969,202.722839 
	C150.761383,199.935516 150.917145,197.501205 151.627014,194.852753 
	C152.485352,194.750595 152.789581,194.862534 153.093796,194.974472 
	C152.746414,198.052490 152.399033,201.130524 152.032928,204.623962 
	C151.640900,204.384872 151.267593,203.730362 150.749969,202.722839 
z"/>
<path fill="#BFC5C7" opacity="1.000000" stroke="none" 
	d="
M171.474640,202.777039 
	C170.230530,196.203323 169.215668,189.493073 168.113434,181.981262 
	C166.012192,175.628677 166.830124,170.657700 170.947281,166.018280 
	C172.076950,167.208435 172.971954,168.151367 173.914520,169.428558 
	C175.474670,172.104691 176.732574,174.947510 180.406067,173.038864 
	C177.855118,182.638748 175.304169,192.238647 172.757004,202.217499 
	C172.408478,202.611145 172.056183,202.625824 171.474640,202.777039 
z"/>
<path fill="#404F57" opacity="1.000000" stroke="none" 
	d="
M180.619492,172.946411 
	C176.732574,174.947510 175.474670,172.104691 174.130310,169.266266 
	C174.538361,168.503479 174.778229,168.237259 175.018097,167.971024 
	C175.777008,168.521606 176.535934,169.072189 177.404968,169.702652 
	C178.164948,168.898300 178.955643,168.061432 179.990967,167.078384 
	C180.781601,168.026871 181.327576,169.121506 181.872589,170.615128 
	C181.871613,171.014099 181.814438,171.425980 181.793304,171.631287 
	C181.459091,172.175705 181.146011,172.514816 180.619492,172.946411 
z"/>
<path fill="#A0A9AD" opacity="1.000000" stroke="none" 
	d="
M157.684067,97.747063 
	C157.684067,97.747063 157.631577,97.354744 157.642319,97.157196 
	C159.237625,96.867821 160.822205,96.775986 162.698807,96.855751 
	C162.027908,100.283485 165.234146,104.454216 160.407303,106.534782 
	C159.228638,103.327484 158.456345,100.537270 157.684067,97.747063 
z"/>
<path fill="#8A9499" opacity="1.000000" stroke="none" 
	d="
M176.237793,78.514503 
	C176.801086,78.113586 177.675720,77.798897 178.751541,77.665939 
	C178.151535,78.098686 177.350327,78.349709 176.237793,78.514503 
z"/>
<path fill="#8A9499" opacity="1.000000" stroke="none" 
	d="
M171.698364,78.026245 
	C172.211502,78.076706 172.463669,78.283020 172.836777,78.712944 
	C172.179398,79.136551 171.380478,79.361755 170.262436,79.618057 
	C170.448227,79.151741 170.953125,78.654320 171.698364,78.026245 
z"/>
<path fill="#D0D5D6" opacity="1.000000" stroke="none" 
	d="
M157.382538,97.913574 
	C158.456345,100.537270 159.228638,103.327484 160.012192,106.565857 
	C158.718201,107.506981 157.412933,107.999947 156.034668,108.520470 
	C157.510864,111.026428 158.681870,113.014297 159.461761,115.396210 
	C156.813370,116.281975 154.556107,116.773705 152.298828,117.265434 
	C152.285065,117.630974 152.271301,117.996521 152.257553,118.362061 
	C153.547394,118.699348 154.837234,119.036636 156.071228,119.866577 
	C156.164459,121.002151 156.313553,121.645058 156.409256,122.543152 
	C156.272232,123.134933 156.188599,123.471535 156.126114,124.198128 
	C156.090454,127.082451 156.033630,129.576782 155.976807,132.071106 
	C153.851852,130.988586 151.726883,129.906082 149.300720,128.614182 
	C147.860291,127.028969 146.721039,125.653137 145.398911,124.031059 
	C142.411362,116.941269 139.531174,110.127075 136.851868,103.234795 
	C136.126556,101.368965 136.008896,99.266907 135.895187,97.041054 
	C137.871948,97.574661 139.565872,98.340492 141.833954,99.382065 
	C143.259216,99.815193 144.110321,99.972580 145.226074,100.302582 
	C146.319641,100.563774 147.148529,100.652359 148.285126,100.926010 
	C149.060272,101.088959 149.527710,101.066849 149.995148,101.044739 
	C152.357101,100.056519 154.719055,99.068298 157.382538,97.913574 
z"/>
<path fill="#C5CACC" opacity="1.000000" stroke="none" 
	d="
M156.192413,132.319672 
	C156.033630,129.576782 156.090454,127.082451 156.511017,124.278641 
	C158.179245,124.107872 159.483704,124.246582 160.948517,124.664612 
	C162.724747,125.649094 164.340637,126.354263 165.956528,127.059433 
	C166.175064,131.699463 162.440552,131.712738 159.211533,132.880066 
	C158.110886,132.956604 157.259460,132.762436 156.192413,132.319672 
z"/>
<path fill="#334654" opacity="1.000000" stroke="none" 
	d="
M156.127075,119.373924 
	C154.837234,119.036636 153.547394,118.699348 152.257553,118.362061 
	C152.271301,117.996521 152.285065,117.630974 152.298828,117.265434 
	C154.556107,116.773705 156.813370,116.281975 159.459518,115.749962 
	C162.766098,116.704109 165.683792,117.698540 167.957825,118.880096 
	C166.513245,119.078972 165.712357,119.090729 164.490723,119.073868 
	C161.422363,119.154800 158.774719,119.264366 156.127075,119.373924 
z"/>
<path fill="#69757C" opacity="1.000000" stroke="none" 
	d="
M164.911453,119.102486 
	C165.712357,119.090729 166.513245,119.078972 167.710541,119.135132 
	C167.434570,120.505707 166.762207,121.808365 165.594864,123.489067 
	C163.662643,124.039841 162.225403,124.212570 160.788162,124.385300 
	C159.483704,124.246582 158.179245,124.107872 156.489868,123.888657 
	C156.188599,123.471535 156.272232,123.134933 156.794037,122.473236 
	C159.810303,121.179199 163.745621,123.632278 164.911453,119.102486 
z"/>
<path fill="#9AA2A7" opacity="1.000000" stroke="none" 
	d="
M160.948517,124.664612 
	C162.225403,124.212570 163.662643,124.039841 165.527603,123.800003 
	C165.966568,124.565941 165.977814,125.398987 165.972794,126.645737 
	C164.340637,126.354263 162.724747,125.649094 160.948517,124.664612 
z"/>
<path fill="#1D2B36" opacity="1.000000" stroke="none" 
	d="
M174.869919,167.660645 
	C174.778229,168.237259 174.538361,168.503479 174.082733,168.932007 
	C172.971954,168.151367 172.076950,167.208435 170.947281,166.018280 
	C166.830124,170.657700 166.012192,175.628677 167.963776,181.589844 
	C167.092896,181.936615 166.284286,181.873245 165.241455,181.907166 
	C163.831161,181.207916 162.720139,180.280533 161.459625,179.653809 
	C160.334717,179.094513 159.044662,178.867371 157.215683,178.305801 
	C156.065292,183.311676 154.793823,188.844376 153.308075,194.675781 
	C152.789581,194.862534 152.485352,194.750595 151.738251,194.437866 
	C152.614731,188.242783 154.333130,182.296829 155.068176,176.231705 
	C155.387421,173.597351 153.684006,170.717865 152.795380,167.614014 
	C151.838135,166.552673 150.984787,165.827011 149.769287,165.032776 
	C151.671753,162.406372 153.936356,159.848541 156.583420,156.801590 
	C157.652069,156.538696 158.338287,156.764938 159.111176,157.250763 
	C159.674576,157.426819 160.151306,157.343307 160.824585,157.420303 
	C161.348373,157.548782 161.675598,157.516754 162.354324,157.469025 
	C163.737061,156.909088 164.768280,156.364883 166.272186,155.927307 
	C167.062607,156.092316 167.380325,156.150696 167.698059,156.209076 
	C167.714890,157.231583 167.320099,158.569183 167.819839,159.222031 
	C169.977615,162.040802 172.397354,164.659042 174.869919,167.660645 
M165.252655,167.632996 
	C166.045517,164.694031 167.254333,161.206985 162.936966,160.455734 
	C160.959320,160.111603 157.078735,161.524582 156.763504,162.805649 
	C156.189911,165.136719 156.835007,168.798538 158.458054,170.351822 
	C160.109100,171.931870 163.593094,171.763580 165.252655,167.632996 
z"/>
<path fill="#8A9499" opacity="1.000000" stroke="none" 
	d="
M165.799484,155.820679 
	C164.768280,156.364883 163.737061,156.909088 162.407410,157.041687 
	C162.390762,151.157791 162.672562,145.685516 162.954361,140.213226 
	C164.125687,140.007950 165.297012,139.802673 167.147781,139.356781 
	C169.931549,138.554520 172.035858,137.992859 174.050873,137.455032 
	C174.050873,140.935089 174.050873,144.006744 174.050873,147.078400 
	C174.050873,147.078400 174.014618,147.022827 173.885223,147.152344 
	C173.891159,147.648819 174.026505,148.015793 174.161850,148.382751 
	C174.161850,148.382751 174.221954,148.633087 173.802612,148.786652 
	C170.855347,151.233688 168.327423,153.527176 165.799484,155.820679 
z"/>
<path fill="#5B6871" opacity="1.000000" stroke="none" 
	d="
M174.376984,147.229126 
	C174.050873,144.006744 174.050873,140.935089 174.050873,137.455032 
	C172.035858,137.992859 169.931549,138.554520 167.450592,139.169159 
	C166.764069,138.534256 166.454178,137.846390 166.037308,136.789993 
	C169.617020,134.237991 173.303696,132.054489 177.782013,129.402145 
	C177.782013,134.159729 177.782013,138.472534 178.020462,143.074982 
	C177.073639,144.703018 175.888367,146.041428 174.376984,147.229126 
z"/>
<path fill="#404F57" opacity="1.000000" stroke="none" 
	d="
M166.272186,155.927292 
	C168.327423,153.527176 170.855347,151.233688 173.740112,148.899170 
	C172.166824,151.257385 170.236725,153.656616 168.002350,156.132462 
	C167.380325,156.150696 167.062607,156.092316 166.272186,155.927292 
z"/>
<path fill="#5B6871" opacity="1.000000" stroke="none" 
	d="
M174.303589,148.030304 
	C174.026505,148.015793 173.891159,147.648819 173.917923,147.146790 
	C174.201782,147.233780 174.323547,147.455826 174.303589,148.030304 
z"/>
<path fill="#919BA0" opacity="1.000000" stroke="none" 
	d="
M162.545044,140.164032 
	C162.672562,145.685516 162.390762,151.157791 162.055878,157.057404 
	C161.675598,157.516754 161.348373,157.548782 160.424133,157.344147 
	C159.559555,157.068726 159.292023,157.029938 159.024506,156.991180 
	C158.338287,156.764938 157.652069,156.538696 156.449997,156.488739 
	C155.934128,156.665039 155.926163,156.650742 156.164978,156.216858 
	C156.259903,155.193924 156.116013,154.604889 156.289917,153.787033 
	C157.074905,149.028275 157.542099,144.498306 158.009277,139.968353 
	C159.384766,140.017197 160.760254,140.066025 162.545044,140.164032 
z"/>
<path fill="#404F57" opacity="1.000000" stroke="none" 
	d="
M155.972137,154.015839 
	C156.116013,154.604889 156.259903,155.193924 156.161285,156.169846 
	C152.663651,153.593918 149.408478,150.631119 146.037567,147.350220 
	C146.199112,146.795074 146.476395,146.558044 146.912018,146.096619 
	C148.707840,147.445023 150.345322,149.017807 152.406494,151.000320 
	C153.877502,152.278641 154.924820,153.147232 155.972137,154.015839 
z"/>
<path fill="#334654" opacity="1.000000" stroke="none" 
	d="
M142.012772,96.981995 
	C140.720734,96.203255 139.428696,95.424522 138.262787,94.042442 
	C137.902237,89.324844 137.415573,85.210594 137.349884,81.070839 
	C138.897461,81.018814 140.024033,80.992287 141.150620,80.965759 
	C141.150620,80.965767 141.562134,80.957726 141.944397,81.142715 
	C142.897842,81.204636 143.469040,81.081573 144.040222,80.958511 
	C144.477997,80.960564 144.915771,80.962616 145.687927,81.447243 
	C146.020615,85.891045 145.874634,89.859123 146.062347,93.811363 
	C146.215652,97.039124 145.039886,98.064621 142.012772,96.981995 
z"/>
<path fill="#1F303C" opacity="1.000000" stroke="none" 
	d="
M142.006317,97.346909 
	C145.039886,98.064621 146.215652,97.039124 146.062347,93.811363 
	C145.874634,89.859123 146.020615,85.891045 146.016022,81.461494 
	C147.485428,82.034119 150.158356,82.996193 150.233002,84.129425 
	C150.587189,89.506233 150.232849,94.929710 150.063004,100.690659 
	C149.527710,101.066849 149.060272,101.088959 148.178497,100.652107 
	C146.829910,100.172089 145.895660,100.151031 144.961411,100.129974 
	C144.110321,99.972580 143.259216,99.815193 142.182861,99.414223 
	C141.971664,98.684372 141.985764,98.198097 142.006317,97.346909 
z"/>
<path fill="#253A4C" opacity="1.000000" stroke="none" 
	d="
M136.928909,81.096344 
	C137.415573,85.210594 137.902237,89.324844 138.137711,93.736885 
	C136.318237,92.980820 134.749969,91.926964 133.098541,90.110985 
	C133.905334,86.401421 130.777786,81.548828 136.928909,81.096344 
z"/>
<path fill="#404F57" opacity="1.000000" stroke="none" 
	d="
M137.349884,81.070839 
	C130.777786,81.548828 133.905334,86.401421 132.997009,89.813751 
	C132.671219,89.888062 132.103775,89.501419 132.097778,89.106270 
	C132.052139,86.094215 132.116119,83.080490 132.145981,80.067291 
	C134.956253,80.195724 137.766525,80.324158 140.863708,80.709175 
	C140.024033,80.992287 138.897461,81.018814 137.349884,81.070839 
z"/>
<path fill="#404F57" opacity="1.000000" stroke="none" 
	d="
M143.695740,80.939964 
	C143.469040,81.081573 142.897842,81.204636 142.150024,81.151367 
	C142.432663,80.957161 142.891953,80.939293 143.695740,80.939964 
z"/>
<path fill="#9AA2A7" opacity="1.000000" stroke="none" 
	d="
M156.289917,153.787033 
	C154.924820,153.147232 153.877502,152.278641 152.710571,151.167206 
	C153.082291,147.173203 153.573624,143.422028 154.105698,139.187668 
	C155.230637,139.023209 156.314850,139.341919 157.704163,139.814499 
	C157.542099,144.498306 157.074905,149.028275 156.289917,153.787033 
z"/>
<path fill="#9AA2A7" opacity="1.000000" stroke="none" 
	d="
M164.490723,119.073868 
	C163.745621,123.632278 159.810303,121.179199 156.847427,122.218063 
	C156.313553,121.645058 156.164459,121.002151 156.071228,119.866577 
	C158.774719,119.264366 161.422363,119.154800 164.490723,119.073868 
z"/>
<path fill="#132531" opacity="1.000000" stroke="none" 
	d="
M145.226074,100.302582 
	C145.895660,100.151031 146.829910,100.172089 147.870789,100.467049 
	C147.148529,100.652359 146.319641,100.563774 145.226074,100.302582 
z"/>
<path fill="#213444" opacity="1.000000" stroke="none" 
	d="
M165.122879,168.015961 
	C163.593094,171.763580 160.109100,171.931870 158.458054,170.351822 
	C156.835007,168.798538 156.189911,165.136719 156.763504,162.805649 
	C157.078735,161.524582 160.959320,160.111603 162.936966,160.455734 
	C167.254333,161.206985 166.045517,164.694031 165.122879,168.015961 
z"/>
<path fill="#8A9499" opacity="1.000000" stroke="none" 
	d="
M159.111176,157.250748 
	C159.292023,157.029938 159.559555,157.068726 160.227570,157.183655 
	C160.151306,157.343307 159.674576,157.426819 159.111176,157.250748 
z"/>
</svg>